<?xml version="1.0" encoding="utf-8"?>
<svg xmlns="http://www.w3.org/2000/svg" width="1230px" height="1206px" viewBox="0 0 400 700">
  <defs>
    <linearGradient id="headerGradient" x1="0%" y1="0%" x2="0%" y2="100%">
      <stop offset="0" style="stop-color:#a997f7;stop-opacity:1"/>
      <stop offset="1" style="stop-color:#9b87f5;stop-opacity:1"/>
    </linearGradient>
    <linearGradient id="insightBg" x1="0%" y1="0%" x2="100%" y2="100%">
      <stop offset="0" style="stop-color:#f8f4ff;stop-opacity:1"/>
      <stop offset="1" style="stop-color:#ffffff;stop-opacity:1"/>
    </linearGradient>
    <filter id="shadow" x="-50%" y="-50%" width="200%" height="200%">
      <feGaussianBlur in="SourceAlpha" stdDeviation="3"/>
      <feOffset dx="0" dy="2" result="offsetblur"/>
      <feComponentTransfer>
        <feFuncA type="linear" slope="0.2"/>
      </feComponentTransfer>
      <feMerge>
        <feMergeNode/>
        <feMergeNode in="SourceGraphic"/>
      </feMerge>
    </filter>
  </defs>
  <rect x="20" y="20" width="360" height="660" rx="35" fill="#1a1a1a"/>
  <rect x="28" y="28" width="344" height="644" rx="30" fill="#fafafa"/>
  <rect x="28" y="25.219" width="343.47" height="72.781" rx="30" fill="url(#headerGradient)" style=""/>
  <path d="M 45 63 L 55 53 L 55 58 L 65 58 L 65 68 L 55 68 L 55 73 Z" fill="white"/>
  <circle cx="90" cy="63" r="18" fill="#e5d9ff"/>
  <text x="115" y="60" font-family="Arial, sans-serif" font-size="15" font-weight="bold" fill="white" style="white-space: pre;">Eirvana</text>
  <text x="115" y="75" font-family="Arial, sans-serif" font-size="11" fill="white" opacity="0.9" style="white-space: pre;">Your Health Companion</text>
  <rect x="28" y="98" width="344" height="520" fill="#ffffff"/>
  <g filter="url(#shadow)">
    <circle cx="48" cy="125" r="14" fill="#9b87f5"/>
    <rect x="70" y="110" width="240" height="65" rx="12" fill="white" stroke="#e5e5e5" stroke-width="1"/>
    <path d="M 70 130 L 65 128 L 70 126" fill="white" stroke="#e5e5e5" stroke-width="1"/>
    <text x="80" y="128" font-family="Arial, sans-serif" font-size="12" fill="#2d2d2d" style="white-space: pre;">
      <tspan x="80" dy="0">Hi! I'm here to help you understand</tspan>
      <tspan x="80" dy="16">what's happening with your body.</tspan>
      <tspan x="80" dy="16">What brings you here today?</tspan>
    </text>
    <text x="80" y="172" font-family="Arial, sans-serif" font-size="9" fill="#999" style="white-space: pre;">10:23 AM</text>
  </g>
  <g filter="url(#shadow)">
    <circle cx="352" cy="205" r="14" fill="#e5d9ff"/>
    <text x="352" y="210" text-anchor="middle" font-family="Arial, sans-serif" font-size="12" font-weight="bold" fill="#9b87f5" style="white-space: pre;">S</text>
    <rect x="140" y="190" width="195" height="50" rx="12" fill="#9b87f5"/>
    <path d="M 335 205 L 340 203 L 335 201" fill="#9b87f5"/>
    <text x="150" y="208" font-family="Arial, sans-serif" font-size="12" fill="white" style="white-space: pre;">
      <tspan x="150" dy="0">I've been having trouble</tspan>
      <tspan x="150" dy="16">sleeping and night sweats</tspan>
    </text>
    <text x="325" y="237" text-anchor="end" font-family="Arial, sans-serif" font-size="9" fill="#999" style="white-space: pre;">10:24 AM</text>
    <path d="M 89.081 49.574 C 87.451 50.661 86.008 52.184 85.289 53.576 C 84.865 54.4 84.864 54.36 85.305 54.625 C 88.878 56.775 90.754 59.49 90.887 62.701 C 90.914 63.361 90.906 63.356 91.379 62.986 C 96.172 59.224 96.066 54.163 91.104 49.888 C 89.996 48.932 90.033 48.938 89.081 49.574 M 102.59 53.216 C 100.412 53.412 98.639 53.847 96.455 54.724 C 95.517 55.101 95.532 55.088 95.605 55.481 C 96.092 58.11 94.86 60.9 92.21 63.162 C 91.937 63.394 91.714 63.594 91.714 63.605 C 91.707 63.735 94.347 63.348 95.451 63.055 C 100.502 61.718 103.372 58.704 103.697 54.396 L 103.788 53.17 L 103.522 53.163 C 103.377 53.159 102.957 53.184 102.59 53.216 M 75.739 53.434 C 75.678 55.967 76.21 57.41 77.965 59.474 L 78.725 60.369 L 78.707 60.743 C 78.665 61.612 78.088 62.341 76.225 63.878 C 74.476 65.323 74.439 65.597 75.886 66.4 C 76.698 66.85 76.758 67.034 76.292 67.655 C 75.893 68.185 75.937 68.451 76.477 68.775 C 76.801 68.971 76.811 69.016 76.601 69.352 C 76.329 69.784 76.339 69.855 76.742 70.292 C 77.145 70.729 77.175 70.83 77.078 71.411 C 77.038 71.652 76.997 72.005 76.988 72.195 C 76.932 73.411 78.688 74.09 81.357 73.882 C 84.785 73.615 87.159 74.691 87.104 76.487 C 87.102 76.6 87.122 76.695 87.152 76.696 C 87.352 76.703 87.442 75.759 87.298 75.15 C 86.892 73.433 85.718 72.93 82.514 73.101 C 79.789 73.244 78.609 72.636 79.104 71.34 C 79.411 70.534 79.412 70.538 78.835 70.056 C 78.223 69.546 78.484 69.015 79.334 69.042 C 79.479 69.047 79.344 68.954 78.999 68.814 C 78.207 68.49 78.059 68.199 78.436 67.707 C 78.892 67.111 78.811 66.885 77.969 66.411 C 76.987 65.857 76.93 65.571 77.687 64.953 C 79.374 63.572 79.983 62.582 80.109 61.018 C 80.211 59.778 80.42 59.257 81.528 57.487 C 81.861 56.956 82.14 56.527 82.149 56.535 C 82.158 56.542 82.138 56.635 82.104 56.741 C 81.373 59.031 82.968 61.803 86.215 63.888 C 87.717 64.852 87.963 65.023 88.747 65.634 C 92.994 68.943 92.452 73.125 87.211 77.494 C 86.894 77.757 86.921 77.761 87.666 77.577 C 96.424 75.414 99.711 70.34 94.828 66.524 C 94.299 66.111 94.22 66.03 94.361 66.059 C 94.456 66.077 94.843 66.163 95.221 66.25 C 99.554 67.246 104.491 66.081 107.919 63.256 C 108.747 62.573 105.483 61.44 102.166 61.259 L 100.915 61.191 L 100.242 61.617 C 97.579 63.306 94.435 64.177 91.199 64.126 L 90.073 64.109 L 90.078 63.199 C 90.092 60.494 89.104 58.468 86.788 56.454 C 84.375 54.356 79.874 52.536 76.333 52.226 L 75.769 52.177 L 75.739 53.434" stroke="none" fill-rule="evenodd" style="fill: rgb(149, 110, 165); stroke-width: 1; transform-origin: 93.768px 66.278px;"/>
  </g>
  <g filter="url(#shadow)">
    <circle cx="48" cy="280" r="14" fill="#9b87f5"/>
    <rect x="70" y="265" width="260" height="150" rx="12" fill="white" stroke="#e5e5e5" stroke-width="1"/>
    <path d="M 70 285 L 65 283 L 70 281" fill="white" stroke="#e5e5e5" stroke-width="1"/>
    <text x="80" y="283" font-family="Arial, sans-serif" font-size="12" fill="#2d2d2d" style="white-space: pre;">
      <tspan x="80" dy="0">I understand. Let me help you figure</tspan>
      <tspan x="80" dy="16">out what might be causing this.</tspan>
    </text>
    <rect x="80" y="315" width="240" height="85" rx="8" fill="url(#insightBg)" stroke="#e5d9ff" stroke-width="1"/>
    <circle cx="92" cy="327" r="6" fill="#9b87f5" opacity="0.2"/>
    <text x="105" y="330" font-family="Arial, sans-serif" font-size="11" font-weight="bold" fill="#9b87f5" style="white-space: pre;">Possible Connection</text>
    <text x="90" y="348" font-family="Arial, sans-serif" font-size="10" fill="#555" style="white-space: pre;">
      <tspan x="90" dy="0">Night sweats + sleep disruption</tspan>
      <tspan x="90" dy="14">often linked to hormonal</tspan>
      <tspan x="90" dy="14">fluctuations during perimenopause</tspan>
    </text>
    <rect x="90" y="380" width="85" height="16" rx="8" fill="#e5d9ff"/>
    <text x="132.5" y="390" text-anchor="middle" font-family="Arial, sans-serif" font-size="9" font-weight="600" fill="#9b87f5" style="white-space: pre;">Hormone-related</text>
  </g>
  <g filter="url(#shadow)">
    <circle cx="48" cy="455" r="14" fill="#9b87f5"/>
    <rect x="70" y="430" width="250" height="80" rx="12" fill="white" stroke="#e5e5e5" stroke-width="1"/>
    <path d="M 70 450 L 65 448 L 70 446" fill="white" stroke="#e5e5e5" stroke-width="1"/>
    <text x="80" y="448" font-family="Arial, sans-serif" font-size="12" fill="#2d2d2d" style="white-space: pre;">
      <tspan x="80" dy="0">To give you personalized insights,</tspan>
      <tspan x="80" dy="16">I'd like to know more:</tspan>
    </text>
  </g>
  <g>
    <rect x="70" y="520" width="130" height="28" rx="14" fill="white" stroke="#9b87f5" stroke-width="1.5"/>
    <text x="135" y="538" text-anchor="middle" font-family="Arial, sans-serif" font-size="11" fill="#9b87f5" style="white-space: pre;">How often?</text>
    <rect x="210" y="520" width="110" height="28" rx="14" fill="white" stroke="#9b87f5" stroke-width="1.5"/>
    <text x="265" y="538" text-anchor="middle" font-family="Arial, sans-serif" font-size="11" fill="#9b87f5" style="white-space: pre;">Since when?</text>
  </g>
  <g>
    <rect x="70" y="555" width="150" height="28" rx="14" fill="white" stroke="#9b87f5" stroke-width="1.5"/>
    <text x="145" y="573" text-anchor="middle" font-family="Arial, sans-serif" font-size="11" fill="#9b87f5" style="white-space: pre;">Other symptoms?</text>
    <rect x="230" y="555" width="90" height="28" rx="14" fill="white" stroke="#9b87f5" stroke-width="1.5"/>
    <text x="275" y="573" text-anchor="middle" font-family="Arial, sans-serif" font-size="11" fill="#9b87f5" style="white-space: pre;">Age: 45</text>
  </g>
  <rect x="34.921" y="618" width="322.723" height="37.575" fill="#ffffff" style=""/>
  <line x1="28" y1="618" x2="372" y2="618" stroke="#e5e5e5" stroke-width="1"/>
  <rect x="45" y="630" width="250" height="32" rx="16" fill="#f5f5f5"/>
  <text x="60" y="650" font-family="Arial, sans-serif" font-size="12" fill="#999" style="white-space: pre;">Type your message...</text>
  <circle cx="350" cy="646" r="16" fill="#9b87f5"/>
  <path d="M 345 646 L 355 646 M 350 641 L 355 646 L 350 651" fill="none" stroke="white" stroke-width="2" stroke-linecap="round" stroke-linejoin="round"/>
  <text style="fill: rgb(255, 255, 255); fill-rule: evenodd; font-family: Arial; white-space: pre;" transform="matrix(1.980562, 0, 0, 1.729159, -1091.925798, -288.304692)" x="571.021" y="242.681">e</text>
  <text style="fill: rgb(255, 255, 255); fill-rule: evenodd; font-family: Arial; white-space: pre;" transform="matrix(2.155022, 0, 0, 1.670128, -1192.314959, -118.649668)" x="571.021" y="242.681">e</text>
  <text style="fill: rgb(255, 255, 255); fill-rule: evenodd; font-family: Arial; white-space: pre;" transform="matrix(2.130571, 0, 0, 1.833239, -1177.974871, 17.598578)" x="571.021" y="242.681">e</text>
</svg>