<?xml version="1.0" encoding="utf-8"?>
<svg xmlns="http://www.w3.org/2000/svg" width="1230px" height="1206px" viewBox="0 0 1230 1206" version="1.1" xmlns:bx="https://boxy-svg.com"><path d="M 596.577 118.25 C 570.521 144.641 547.887 180.89 537.1 213.5 C 530.722 232.785 530.682 231.876 538.162 237.582 C 598.846 283.863 631.957 344.608 636.642 418.247 C 637.604 433.368 637.484 433.28 644.992 424.353 C 721.216 333.721 715.515 217.584 630.233 123.684 C 611.182 102.709 611.819 102.812 596.577 118.25 M 822.5 190.133 C 786.688 196.52 757.752 208.079 722.376 230.13 C 707.183 239.601 707.418 239.284 708.928 248.242 C 719.042 308.212 700.855 373.394 658.865 427.665 C 654.539 433.256 651 438.031 651 438.277 C 651 441.288 694.293 430.065 712.286 422.389 C 794.662 387.249 839.7 315.51 841.701 216.25 L 842.271 188 L 837.885 188.085 C 835.473 188.132 828.55 189.054 822.5 190.133 M 379.262 218.592 C 380.245 276.834 390.154 309.516 420.738 355.393 L 434 375.285 L 433.988 383.893 C 433.961 403.896 425.001 421.15 395.462 458.085 C 367.69 492.811 367.293 499.136 391.808 516.307 C 405.584 525.956 406.717 530.151 399.5 544.784 C 393.32 557.314 394.252 563.379 403.437 570.384 C 408.932 574.575 409.128 575.614 405.912 583.5 C 401.762 593.68 401.992 595.296 408.978 604.969 C 415.986 614.674 416.568 616.975 415.41 630.404 C 414.932 635.957 414.541 644.1 414.543 648.5 C 414.552 676.485 444.102 690.535 488 683.426 C 544.4 674.292 584.441 696.937 584.942 738.25 C 584.974 740.862 585.402 743 585.893 743 C 589.216 743 589.952 721.211 587.096 707.357 C 579.041 668.276 559.288 657.762 506.5 664.46 C 461.598 670.157 441.64 657.198 448.806 627 C 453.262 608.22 453.278 608.306 443.373 597.752 C 432.867 586.558 436.764 574.115 450.809 574.01 C 453.218 573.992 450.907 571.982 445.117 569.059 C 431.786 562.33 429.097 555.74 434.941 544.117 C 442.03 530.017 440.508 524.891 426.216 514.74 C 409.561 502.909 408.421 496.37 420.42 481.5 C 447.197 448.314 456.501 425.026 457.374 389 C 458.066 360.399 461.111 348.263 478.039 306.621 C 483.112 294.141 487.39 284.058 487.545 284.215 C 487.7 284.372 487.436 286.525 486.958 289 C 476.684 342.249 505.181 404.537 560.429 449.588 C 585.987 470.43 590.184 474.111 603.609 487.465 C 676.315 559.786 670.628 656.342 587.482 761.268 C 582.468 767.596 582.914 767.686 595.077 762.806 C 738.022 705.45 788.342 586.03 704.719 502.605 C 695.668 493.575 694.286 491.817 696.649 492.335 C 698.217 492.678 704.675 494.325 711 495.994 C 783.322 515.075 863.951 484.01 918.347 416.106 C 931.499 399.687 876.703 376.5 821.79 375.247 L 801.08 374.775 L 790.29 385.172 C 747.634 426.277 696.398 449.058 642.911 450.701 L 624.321 451.272 L 623.687 430.386 C 621.798 368.21 603.906 322.557 564.089 278.319 C 522.598 232.22 446.854 194.34 388.137 190.324 L 378.775 189.684 L 379.262 218.592" stroke="none" fill-rule="evenodd" style="fill: rgb(149, 110, 165);"/><path d="M 188.63 1036.76 Q 188.66 1036.85 188.75 1036.85 Q 188.84 1036.85 188.87 1036.76 Q 190.05 1034.62 191.2 1032.12 Q 192.35 1029.63 193.4 1026.85 Q 194.45 1024.08 195.29 1021.17 Q 195.42 1020.76 195.77 1020.39 Q 196.13 1020.02 196.58 1019.77 Q 197.03 1019.52 197.43 1019.52 Q 198.3 1019.52 198.72 1019.91 Q 199.14 1020.3 199.17 1020.89 Q 199.2 1021.48 198.89 1022.1 Q 197.65 1024.82 196.25 1027.75 Q 194.86 1030.68 193.4 1033.58 Q 191.94 1036.48 190.49 1039.12 Q 190.15 1039.77 189.53 1040.14 Q 188.91 1040.51 188.19 1040.51 Q 187.45 1040.51 186.94 1040.14 Q 186.43 1039.77 186.27 1039.12 Q 185.65 1036.48 185.12 1033.58 Q 184.6 1030.68 184.16 1027.75 Q 183.73 1024.82 183.33 1022.1 Q 183.26 1021.48 183.53 1020.96 Q 183.79 1020.45 184.26 1020.14 Q 184.72 1019.83 185.19 1019.83 Q 186.08 1019.83 186.49 1020.3 Q 186.89 1020.76 186.92 1021.54 Q 187.01 1024.39 187.23 1027.09 Q 187.45 1029.78 187.81 1032.23 Q 188.16 1034.68 188.63 1036.76 Z M 200.87 1040.82 Q 200.1 1040.82 199.58 1040.42 Q 199.07 1040.01 199.26 1039.3 Q 199.76 1037.22 200.14 1034.99 Q 200.53 1032.76 200.84 1030.53 Q 201.15 1028.3 201.34 1026.22 Q 201.4 1025.72 201.71 1025.4 Q 202.02 1025.07 202.5 1024.89 Q 202.98 1024.7 203.48 1024.7 Q 204.19 1024.7 204.53 1025.1 Q 204.87 1025.51 204.75 1026.22 Q 204.41 1028.3 204.06 1030.53 Q 203.72 1032.76 203.44 1034.99 Q 203.17 1037.22 202.98 1039.3 Q 202.92 1039.77 202.59 1040.11 Q 202.27 1040.45 201.82 1040.63 Q 201.37 1040.82 200.87 1040.82 Z M 203.79 1022.53 Q 203.2 1022.53 202.76 1022.24 Q 202.33 1021.94 202.11 1021.45 Q 201.89 1020.95 201.99 1020.36 Q 202.08 1019.74 202.45 1019.26 Q 202.82 1018.78 203.37 1018.48 Q 203.91 1018.19 204.5 1018.19 Q 205.4 1018.19 205.92 1018.83 Q 206.45 1019.46 206.33 1020.36 Q 206.2 1021.23 205.44 1021.88 Q 204.68 1022.53 203.79 1022.53 Z M 213.07 1040.82 Q 211.65 1040.82 210.7 1040.73 Q 209.76 1040.63 208.86 1040.57 Q 208.18 1040.51 207.66 1040.12 Q 207.15 1039.74 207.34 1039.02 Q 207.99 1035.89 208.56 1032.7 Q 209.14 1029.51 209.66 1026.31 Q 210.19 1023.12 210.69 1020.02 Q 210.81 1019.31 211.28 1018.9 Q 211.74 1018.5 212.52 1018.5 Q 213.01 1018.5 213.41 1018.69 Q 213.82 1018.87 214.02 1019.2 Q 214.22 1019.52 214.1 1020.02 Q 213.79 1021.17 213.49 1022.5 Q 213.2 1023.83 212.98 1025.01 Q 212.86 1025.72 212.87 1025.97 Q 212.89 1026.22 213.1 1026.22 Q 213.26 1026.22 213.74 1025.83 Q 214.22 1025.44 215.12 1025.07 Q 216.02 1024.7 217.38 1024.7 Q 219.86 1024.7 220.64 1026.59 Q 221.41 1028.48 220.85 1031.99 L 220.73 1032.76 Q 220.58 1033.72 220.2 1034.84 Q 219.83 1035.95 219.23 1037.01 Q 218.62 1038.06 217.75 1038.93 Q 216.89 1039.8 215.72 1040.31 Q 214.56 1040.82 213.07 1040.82 Z M 213.54 1038.03 Q 214.62 1038.03 215.34 1037.53 Q 216.05 1037.04 216.51 1036.25 Q 216.98 1035.46 217.24 1034.53 Q 217.51 1033.6 217.63 1032.76 L 217.75 1031.99 Q 218.16 1029.63 217.85 1028.33 Q 217.54 1027.03 216.24 1027.03 Q 215.37 1027.03 214.44 1027.63 Q 213.51 1028.23 212.84 1029.2 Q 212.17 1030.16 211.99 1031.21 L 211 1037.44 Q 210.97 1037.57 211.01 1037.66 Q 211.06 1037.75 211.12 1037.78 Q 211.55 1037.91 212.19 1037.97 Q 212.83 1038.03 213.54 1038.03 Z M 224.86 1040.82 Q 224.4 1040.82 223.99 1040.63 Q 223.59 1040.45 223.37 1040.11 Q 223.16 1039.77 223.25 1039.3 Q 223.78 1037.13 224.18 1034.88 Q 224.58 1032.64 224.91 1030.37 Q 225.23 1028.11 225.42 1025.97 Q 225.42 1025.44 225.93 1025.18 Q 226.44 1024.92 226.94 1024.92 Q 227.5 1024.92 227.71 1025.17 Q 227.93 1025.41 227.96 1025.91 Q 227.99 1026.22 228.07 1026.47 Q 228.15 1026.72 228.36 1026.72 Q 228.55 1026.72 228.95 1026.41 Q 229.36 1026.1 229.99 1025.71 Q 230.63 1025.32 231.46 1025.01 Q 232.3 1024.7 233.32 1024.7 Q 233.57 1024.7 233.82 1024.72 Q 234.07 1024.73 234.29 1024.76 Q 234.81 1024.82 235.06 1025.26 Q 235.31 1025.69 234.87 1026.5 Q 234.72 1026.81 234.39 1027.1 Q 234.07 1027.4 233.71 1027.52 Q 233.36 1027.65 233.11 1027.46 Q 232.92 1027.3 232.67 1027.16 Q 232.43 1027.03 232.18 1027.03 Q 231.31 1027.03 230.4 1027.63 Q 229.48 1028.23 228.81 1029.2 Q 228.15 1030.16 227.96 1031.21 Q 227.78 1032.51 227.56 1033.89 Q 227.34 1035.27 227.19 1036.64 Q 227.03 1038 226.97 1039.3 Q 226.97 1039.77 226.66 1040.11 Q 226.35 1040.45 225.87 1040.63 Q 225.39 1040.82 224.86 1040.82 Z M 239.27 1040.82 Q 236.79 1040.82 236 1038.91 Q 235.21 1037.01 235.76 1033.54 L 235.89 1032.76 Q 236.07 1031.55 236.6 1030.16 Q 237.13 1028.76 238.03 1027.52 Q 238.93 1026.28 240.29 1025.49 Q 241.65 1024.7 243.51 1024.7 Q 245 1024.7 246.06 1024.92 Q 247.11 1025.13 247.98 1025.48 Q 248.54 1025.69 248.94 1026.13 Q 249.34 1026.56 249.19 1027.21 Q 248.81 1028.73 248.49 1030.44 Q 248.16 1032.14 247.9 1033.81 Q 247.64 1035.49 247.45 1036.95 Q 247.26 1038.4 247.2 1039.46 Q 247.17 1039.95 246.69 1040.23 Q 246.21 1040.51 245.68 1040.51 Q 245.13 1040.51 244.91 1040.26 Q 244.69 1040.01 244.63 1039.52 Q 244.63 1039.18 244.54 1038.99 Q 244.44 1038.81 244.23 1038.81 Q 244.04 1038.81 243.64 1039.12 Q 243.23 1039.43 242.6 1039.81 Q 241.96 1040.2 241.13 1040.51 Q 240.29 1040.82 239.27 1040.82 Z M 240.44 1038.19 Q 241.34 1038.19 242.24 1037.66 Q 243.14 1037.13 243.81 1036.25 Q 244.47 1035.36 244.63 1034.31 Q 244.82 1033.19 245.03 1032.08 Q 245.25 1030.96 245.5 1029.85 Q 245.75 1028.73 245.96 1027.61 Q 246.12 1027.34 245.81 1027.27 Q 245.44 1027.21 244.71 1027.12 Q 243.98 1027.03 243.14 1027.03 Q 242.09 1027.03 241.34 1027.58 Q 240.6 1028.14 240.13 1029.04 Q 239.67 1029.94 239.41 1030.93 Q 239.14 1031.92 238.99 1032.76 L 238.86 1033.54 Q 238.49 1035.89 238.82 1037.04 Q 239.14 1038.19 240.44 1038.19 Z M 253.44 1025.97 Q 253.44 1025.44 253.95 1025.18 Q 254.46 1024.92 254.96 1024.92 Q 255.52 1024.92 255.73 1025.17 Q 255.95 1025.41 255.98 1025.91 Q 256.01 1026.22 256.09 1026.47 Q 256.17 1026.72 256.38 1026.72 Q 256.57 1026.72 256.97 1026.41 Q 257.38 1026.1 258.01 1025.71 Q 258.65 1025.32 259.48 1025.01 Q 260.32 1024.7 261.34 1024.7 Q 263.82 1024.7 264.69 1026.2 Q 265.56 1027.71 264.97 1031.21 Q 264.78 1032.51 264.57 1033.89 Q 264.35 1035.27 264.2 1036.65 Q 264.04 1038.03 263.98 1039.33 Q 263.98 1039.8 263.67 1040.14 Q 263.36 1040.48 262.91 1040.65 Q 262.46 1040.82 261.96 1040.82 Q 261.16 1040.82 260.6 1040.43 Q 260.04 1040.05 260.26 1039.33 Q 260.54 1038.34 260.77 1037.32 Q 261 1036.29 261.19 1035.27 Q 261.37 1034.25 261.54 1033.21 Q 261.72 1032.17 261.87 1031.21 Q 262.24 1028.85 261.87 1027.94 Q 261.5 1027.03 260.2 1027.03 Q 259.33 1027.03 258.41 1027.63 Q 257.5 1028.23 256.83 1029.2 Q 256.17 1030.16 255.98 1031.21 Q 255.79 1032.51 255.58 1033.89 Q 255.36 1035.27 255.21 1036.65 Q 255.05 1038.03 254.99 1039.33 Q 254.99 1039.8 254.68 1040.14 Q 254.37 1040.48 253.92 1040.65 Q 253.47 1040.82 252.97 1040.82 Q 252.17 1040.82 251.64 1040.43 Q 251.11 1040.05 251.27 1039.33 Q 251.76 1037.16 252.18 1034.91 Q 252.6 1032.67 252.93 1030.39 Q 253.25 1028.11 253.44 1025.97 Z M 272.44 1040.67 Q 270.79 1040.76 269.83 1040.26 Q 268.87 1039.77 268.45 1038.85 Q 268.03 1037.94 268.07 1036.76 Q 268.1 1035.58 268.47 1034.31 Q 268.81 1033.16 269.06 1032.03 Q 269.31 1030.9 269.51 1029.77 Q 269.71 1028.64 269.89 1027.49 Q 269.93 1027.4 269.89 1027.34 Q 269.86 1027.27 269.8 1027.23 Q 269.74 1027.18 269.65 1027.18 Q 268.78 1027.18 268.48 1026.9 Q 268.19 1026.62 268.28 1026.06 Q 268.38 1025.54 268.75 1025.27 Q 269.12 1025.01 269.99 1025.01 Q 270.14 1025.01 270.24 1024.92 Q 270.33 1024.82 270.36 1024.7 Q 270.42 1024.17 270.51 1023.63 Q 270.61 1023.09 270.7 1022.56 Q 270.82 1021.85 271.27 1021.45 Q 271.72 1021.04 272.5 1021.04 Q 273.24 1021.04 273.6 1021.41 Q 273.96 1021.79 273.83 1022.56 Q 273.74 1023.09 273.63 1023.63 Q 273.52 1024.17 273.43 1024.7 Q 273.37 1025.01 273.68 1025.01 Q 274.2 1025.01 274.73 1025.01 Q 275.26 1025.01 275.75 1025.01 Q 276.28 1025.01 276.67 1025.27 Q 277.06 1025.54 276.96 1026.06 Q 276.87 1026.62 276.36 1027.09 Q 275.85 1027.55 275.35 1027.49 Q 274.85 1027.43 274.33 1027.37 Q 273.8 1027.3 273.27 1027.27 Q 273.15 1027.24 273.04 1027.32 Q 272.93 1027.4 272.87 1027.55 Q 272.53 1029.26 272.2 1030.93 Q 271.88 1032.61 271.57 1034.31 Q 271.35 1035.71 271.37 1036.48 Q 271.38 1037.26 271.75 1037.52 Q 272.13 1037.78 272.9 1037.72 Q 273.34 1037.66 273.66 1038.17 Q 273.99 1038.68 273.86 1039.49 Q 273.77 1040.05 273.34 1040.34 Q 272.9 1040.63 272.44 1040.67 Z M 287.07 1040.51 Q 286.6 1040.51 286.2 1040.32 Q 285.8 1040.14 285.61 1039.8 Q 285.42 1039.46 285.52 1038.99 Q 286.14 1036.05 286.65 1033.1 Q 287.16 1030.16 287.58 1027.23 Q 288 1024.3 288.31 1021.35 Q 288.37 1020.86 288.68 1020.53 Q 288.99 1020.21 289.47 1020.02 Q 289.95 1019.83 290.41 1019.83 Q 291.19 1019.83 291.53 1020.24 Q 291.87 1020.64 291.72 1021.35 Q 291.13 1024.08 290.63 1026.81 Q 290.14 1029.54 289.7 1032.26 Q 289.27 1034.99 288.8 1037.72 Q 288.77 1037.84 288.85 1037.94 Q 288.93 1038.03 289.05 1038.03 Q 290.6 1038 292.21 1037.8 Q 293.82 1037.6 295.37 1037.41 Q 295.93 1037.35 296.3 1037.61 Q 296.68 1037.88 296.85 1038.29 Q 297.02 1038.71 296.92 1039.15 Q 296.86 1039.55 296.58 1039.84 Q 296.3 1040.14 295.87 1040.32 Q 295.44 1040.51 294.88 1040.51 Z M 300.9 1040.82 Q 300.12 1040.82 299.61 1040.42 Q 299.1 1040.01 299.29 1039.3 Q 299.78 1037.22 300.17 1034.99 Q 300.56 1032.76 300.87 1030.53 Q 301.18 1028.3 301.36 1026.22 Q 301.42 1025.72 301.73 1025.4 Q 302.04 1025.07 302.53 1024.89 Q 303.01 1024.7 303.5 1024.7 Q 304.21 1024.7 304.56 1025.1 Q 304.9 1025.51 304.77 1026.22 Q 304.43 1028.3 304.09 1030.53 Q 303.75 1032.76 303.47 1034.99 Q 303.19 1037.22 303.01 1039.3 Q 302.94 1039.77 302.62 1040.11 Q 302.29 1040.45 301.84 1040.63 Q 301.39 1040.82 300.9 1040.82 Z M 303.81 1022.53 Q 303.22 1022.53 302.79 1022.24 Q 302.35 1021.94 302.14 1021.45 Q 301.92 1020.95 302.01 1020.36 Q 302.11 1019.74 302.48 1019.26 Q 302.85 1018.78 303.39 1018.48 Q 303.94 1018.19 304.52 1018.19 Q 305.42 1018.19 305.95 1018.83 Q 306.48 1019.46 306.35 1020.36 Q 306.23 1021.23 305.47 1021.88 Q 304.71 1022.53 303.81 1022.53 Z M 312.03 1040.67 Q 311.35 1040.67 310.93 1040.36 Q 310.51 1040.05 310.32 1039.27 Q 309.83 1037.1 309.46 1034.93 Q 309.08 1032.76 308.82 1030.61 Q 308.56 1028.45 308.31 1026.34 Q 308.28 1025.85 308.54 1025.48 Q 308.81 1025.1 309.26 1024.9 Q 309.7 1024.7 310.17 1024.7 Q 310.98 1024.7 311.33 1025.04 Q 311.69 1025.38 311.69 1026.1 Q 311.72 1027.83 311.78 1029.68 Q 311.84 1031.52 312.06 1033.35 Q 312.28 1035.18 312.77 1036.95 Q 312.84 1037.13 312.96 1037.13 Q 313.08 1037.13 313.21 1036.95 Q 314.26 1035.18 315.07 1033.35 Q 315.87 1031.52 316.54 1029.68 Q 317.21 1027.83 317.76 1026.1 Q 318.01 1025.38 318.48 1025.04 Q 318.94 1024.7 319.62 1024.7 L 319.66 1024.7 Q 320.18 1024.7 320.57 1024.9 Q 320.96 1025.1 321.11 1025.46 Q 321.27 1025.82 321.02 1026.34 Q 320.12 1028.45 319.16 1030.61 Q 318.2 1032.76 317.16 1034.93 Q 316.12 1037.1 314.91 1039.27 Q 314.51 1040.05 313.87 1040.36 Q 313.24 1040.67 312.03 1040.67 Z M 323.78 1040.82 Q 323 1040.82 322.49 1040.42 Q 321.98 1040.01 322.17 1039.3 Q 322.66 1037.22 323.05 1034.99 Q 323.44 1032.76 323.75 1030.53 Q 324.06 1028.3 324.24 1026.22 Q 324.3 1025.72 324.61 1025.4 Q 324.92 1025.07 325.4 1024.89 Q 325.89 1024.7 326.38 1024.7 Q 327.09 1024.7 327.44 1025.1 Q 327.78 1025.51 327.65 1026.22 Q 327.31 1028.3 326.97 1030.53 Q 326.63 1032.76 326.35 1034.99 Q 326.07 1037.22 325.89 1039.3 Q 325.82 1039.77 325.5 1040.11 Q 325.17 1040.45 324.72 1040.63 Q 324.27 1040.82 323.78 1040.82 Z M 326.69 1022.53 Q 326.1 1022.53 325.67 1022.24 Q 325.23 1021.94 325.02 1021.45 Q 324.8 1020.95 324.89 1020.36 Q 324.99 1019.74 325.36 1019.26 Q 325.73 1018.78 326.27 1018.48 Q 326.82 1018.19 327.4 1018.19 Q 328.3 1018.19 328.83 1018.83 Q 329.36 1019.46 329.23 1020.36 Q 329.11 1021.23 328.35 1021.88 Q 327.59 1022.53 326.69 1022.53 Z M 331.44 1025.97 Q 331.44 1025.44 331.95 1025.18 Q 332.46 1024.92 332.95 1024.92 Q 333.51 1024.92 333.73 1025.17 Q 333.95 1025.41 333.98 1025.91 Q 334.01 1026.22 334.09 1026.47 Q 334.16 1026.72 334.38 1026.72 Q 334.57 1026.72 334.97 1026.41 Q 335.37 1026.1 336.01 1025.71 Q 336.64 1025.32 337.48 1025.01 Q 338.32 1024.7 339.34 1024.7 Q 341.82 1024.7 342.69 1026.2 Q 343.56 1027.71 342.97 1031.21 Q 342.78 1032.51 342.56 1033.89 Q 342.35 1035.27 342.19 1036.65 Q 342.04 1038.03 341.98 1039.33 Q 341.98 1039.8 341.67 1040.14 Q 341.36 1040.48 340.91 1040.65 Q 340.46 1040.82 339.96 1040.82 Q 339.15 1040.82 338.6 1040.43 Q 338.04 1040.05 338.26 1039.33 Q 338.53 1038.34 338.77 1037.32 Q 339 1036.29 339.19 1035.27 Q 339.37 1034.25 339.54 1033.21 Q 339.71 1032.17 339.87 1031.21 Q 340.24 1028.85 339.87 1027.94 Q 339.5 1027.03 338.19 1027.03 Q 337.33 1027.03 336.41 1027.63 Q 335.5 1028.23 334.83 1029.2 Q 334.16 1030.16 333.98 1031.21 Q 333.79 1032.51 333.57 1033.89 Q 333.36 1035.27 333.2 1036.65 Q 333.05 1038.03 332.99 1039.33 Q 332.99 1039.8 332.68 1040.14 Q 332.37 1040.48 331.92 1040.65 Q 331.47 1040.82 330.97 1040.82 Q 330.16 1040.82 329.64 1040.43 Q 329.11 1040.05 329.27 1039.33 Q 329.76 1037.16 330.18 1034.91 Q 330.6 1032.67 330.92 1030.39 Q 331.25 1028.11 331.44 1025.97 Z M 350.03 1047.02 Q 348.85 1047.02 347.91 1046.79 Q 346.96 1046.56 346.37 1046.34 Q 345.94 1046.15 345.86 1045.8 Q 345.78 1045.44 345.97 1044.97 Q 346.22 1044.32 346.64 1044.03 Q 347.05 1043.73 347.55 1043.92 Q 348.02 1044.08 348.71 1044.39 Q 349.41 1044.7 350.4 1044.7 Q 351.77 1044.7 352.54 1044.14 Q 353.32 1043.58 353.73 1042.57 Q 354.15 1041.56 354.37 1040.23 Q 354.46 1039.67 354.43 1039.49 Q 354.4 1039.3 354.22 1039.3 Q 354.09 1039.3 353.6 1039.69 Q 353.1 1040.08 352.22 1040.45 Q 351.33 1040.82 349.94 1040.82 Q 348.29 1040.82 347.4 1039.97 Q 346.5 1039.12 346.29 1037.49 Q 346.09 1035.86 346.47 1033.54 L 346.59 1032.76 Q 346.78 1031.55 347.3 1030.16 Q 347.83 1028.76 348.74 1027.52 Q 349.66 1026.28 351.02 1025.49 Q 352.39 1024.7 354.25 1024.7 Q 355.73 1024.7 356.77 1024.92 Q 357.81 1025.13 358.65 1025.48 Q 359.24 1025.69 359.62 1026.13 Q 360.01 1026.56 359.86 1027.21 Q 359.49 1028.89 359.16 1030.54 Q 358.83 1032.2 358.54 1033.86 Q 358.25 1035.52 357.98 1037.18 Q 357.72 1038.84 357.44 1040.51 Q 357.25 1041.72 356.76 1042.88 Q 356.26 1044.04 355.39 1044.97 Q 354.53 1045.9 353.21 1046.46 Q 351.89 1047.02 350.03 1047.02 Z M 351.15 1038.19 Q 352.05 1038.19 352.94 1037.66 Q 353.84 1037.13 354.51 1036.25 Q 355.18 1035.36 355.33 1034.31 Q 355.61 1032.64 355.97 1030.96 Q 356.32 1029.29 356.66 1027.65 Q 356.73 1027.49 356.68 1027.41 Q 356.63 1027.34 356.48 1027.3 Q 356.11 1027.24 355.44 1027.13 Q 354.77 1027.03 353.87 1027.03 Q 352.82 1027.03 352.08 1027.58 Q 351.33 1028.14 350.85 1029.04 Q 350.37 1029.94 350.11 1030.93 Q 349.84 1031.92 349.69 1032.76 L 349.57 1033.54 Q 349.16 1035.89 349.5 1037.04 Q 349.84 1038.19 351.15 1038.19 Z M 385.16 1021.1 Q 385.09 1021.48 384.89 1021.85 Q 384.69 1022.22 384.38 1022.44 Q 384.07 1022.65 383.7 1022.62 Q 382.49 1022.47 381.16 1022.41 Q 379.82 1022.34 378.48 1022.33 Q 377.13 1022.31 375.86 1022.31 Q 375.7 1022.31 375.61 1022.41 Q 375.51 1022.5 375.48 1022.65 Q 375.48 1023.62 375.38 1024.58 Q 375.27 1025.54 375.13 1026.5 Q 374.99 1027.46 374.83 1028.42 Q 374.8 1028.58 374.88 1028.65 Q 374.96 1028.73 375.11 1028.73 Q 376.66 1028.73 378.23 1028.68 Q 379.79 1028.64 381.37 1028.42 Q 381.99 1028.33 382.21 1028.85 Q 382.43 1029.38 382.33 1030 Q 382.24 1030.59 381.89 1030.9 Q 381.53 1031.21 380.94 1031.21 Q 379.39 1031.21 377.81 1031.24 Q 376.23 1031.27 374.62 1031.49 Q 374.49 1031.52 374.4 1031.58 Q 374.31 1031.64 374.31 1031.8 Q 374.09 1033.1 373.9 1034.33 Q 373.72 1035.55 373.58 1036.77 Q 373.44 1038 373.38 1039.3 Q 373.38 1039.89 372.72 1040.2 Q 372.07 1040.51 370.99 1040.51 Q 370.4 1040.51 369.98 1040.2 Q 369.56 1039.89 369.66 1039.3 Q 370.31 1036.26 370.85 1033.23 Q 371.39 1030.19 371.84 1027.13 Q 372.29 1024.08 372.63 1021.04 Q 372.69 1020.45 373.22 1020.14 Q 373.75 1019.83 374.34 1019.83 L 384.16 1019.83 Q 384.75 1019.83 385 1020.16 Q 385.25 1020.48 385.16 1021.1 Z M 398.42 1033.54 Q 398.24 1034.74 397.72 1036.03 Q 397.21 1037.32 396.33 1038.4 Q 395.45 1039.49 394.11 1040.15 Q 392.78 1040.82 390.92 1040.82 Q 389.43 1040.82 388.42 1040.39 Q 387.42 1039.95 386.8 1039.19 Q 386.18 1038.43 385.9 1037.5 Q 385.62 1036.57 385.59 1035.53 Q 385.56 1034.5 385.71 1033.54 L 385.84 1032.76 Q 386.02 1031.55 386.55 1030.16 Q 387.08 1028.76 387.97 1027.52 Q 388.87 1026.28 390.24 1025.49 Q 391.6 1024.7 393.46 1024.7 Q 395.32 1024.7 396.42 1025.49 Q 397.52 1026.28 398.05 1027.52 Q 398.58 1028.76 398.65 1030.16 Q 398.73 1031.55 398.55 1032.76 Z M 395.45 1032.76 Q 395.57 1031.95 395.6 1030.98 Q 395.63 1030 395.43 1029.1 Q 395.23 1028.2 394.69 1027.61 Q 394.14 1027.03 393.09 1027.03 Q 392.04 1027.03 391.31 1027.61 Q 390.58 1028.2 390.08 1029.1 Q 389.59 1030 389.32 1030.98 Q 389.06 1031.95 388.94 1032.76 L 388.81 1033.54 Q 388.69 1034.22 388.69 1035.01 Q 388.69 1035.8 388.9 1036.53 Q 389.12 1037.26 389.69 1037.72 Q 390.27 1038.19 391.32 1038.19 Q 392.38 1038.19 393.09 1037.72 Q 393.8 1037.26 394.25 1036.53 Q 394.7 1035.8 394.95 1035.01 Q 395.2 1034.22 395.32 1033.54 Z M 402.66 1040.82 Q 402.19 1040.82 401.79 1040.63 Q 401.39 1040.45 401.17 1040.11 Q 400.95 1039.77 401.05 1039.3 Q 401.57 1037.13 401.98 1034.88 Q 402.38 1032.64 402.71 1030.37 Q 403.03 1028.11 403.22 1025.97 Q 403.22 1025.44 403.73 1025.18 Q 404.24 1024.92 404.74 1024.92 Q 405.29 1024.92 405.51 1025.17 Q 405.73 1025.41 405.76 1025.91 Q 405.79 1026.22 405.87 1026.47 Q 405.94 1026.72 406.16 1026.72 Q 406.35 1026.72 406.75 1026.41 Q 407.15 1026.1 407.79 1025.71 Q 408.42 1025.32 409.26 1025.01 Q 410.1 1024.7 411.12 1024.7 Q 411.37 1024.7 411.62 1024.72 Q 411.87 1024.73 412.08 1024.76 Q 412.61 1024.82 412.86 1025.26 Q 413.11 1025.69 412.67 1026.5 Q 412.52 1026.81 412.19 1027.1 Q 411.87 1027.4 411.51 1027.52 Q 411.15 1027.65 410.9 1027.46 Q 410.72 1027.3 410.47 1027.16 Q 410.22 1027.03 409.97 1027.03 Q 409.11 1027.03 408.19 1027.63 Q 407.28 1028.23 406.61 1029.2 Q 405.94 1030.16 405.76 1031.21 Q 405.57 1032.51 405.36 1033.89 Q 405.14 1035.27 404.98 1036.64 Q 404.83 1038 404.77 1039.3 Q 404.77 1039.77 404.46 1040.11 Q 404.15 1040.45 403.67 1040.63 Q 403.19 1040.82 402.66 1040.82 Z M 421.23 1040.51 Q 420.67 1040.51 420.33 1040.29 Q 419.99 1040.08 419.94 1039.66 Q 419.89 1039.24 420.11 1038.68 Q 420.26 1038.15 420.5 1037.64 Q 420.73 1037.13 420.95 1036.6 Q 421.01 1036.45 421.01 1036.34 Q 421.01 1036.23 420.92 1036.23 Q 420.88 1036.26 420.84 1036.26 Q 420.79 1036.26 420.73 1036.26 Q 420.36 1036.29 420.11 1036.08 Q 419.86 1035.86 419.78 1035.49 Q 419.71 1035.12 419.77 1034.74 L 419.77 1034.68 Q 419.83 1034.28 420.02 1034.02 Q 420.2 1033.75 420.48 1033.61 Q 420.76 1033.47 421.16 1033.47 L 422 1033.47 Q 422.16 1033.47 422.25 1033.41 Q 422.34 1033.35 422.37 1033.23 Q 423.09 1031.64 423.83 1030.08 Q 424.57 1028.51 425.33 1026.95 Q 426.09 1025.38 426.9 1023.86 Q 427.7 1022.34 428.51 1020.89 Q 429.19 1019.52 430.74 1019.52 Q 432.23 1019.52 432.54 1020.89 Q 433.19 1023.71 433.7 1026.73 Q 434.21 1029.75 434.6 1032.79 Q 434.99 1035.83 435.24 1038.68 Q 435.3 1039.55 434.88 1040.03 Q 434.46 1040.51 433.66 1040.51 Q 432.79 1040.51 432.37 1040.03 Q 431.95 1039.55 431.89 1038.59 Q 431.89 1038 431.87 1037.41 Q 431.86 1036.82 431.8 1036.23 Q 431.8 1035.95 431.49 1035.95 Q 430.65 1035.95 429.8 1035.95 Q 428.94 1035.95 428.08 1035.97 Q 427.21 1035.98 426.34 1036.02 Q 425.47 1036.05 424.6 1036.08 Q 424.48 1036.08 424.39 1036.14 Q 424.29 1036.2 424.26 1036.36 Q 424.02 1037.01 423.77 1037.67 Q 423.52 1038.34 423.27 1039.02 Q 423.02 1039.77 422.51 1040.14 Q 422 1040.51 421.23 1040.51 Z M 425.69 1033.47 Q 427.12 1033.44 428.51 1033.41 Q 429.91 1033.38 431.27 1033.32 Q 431.46 1033.29 431.53 1033.18 Q 431.61 1033.07 431.58 1032.88 Q 431.36 1030.25 431.05 1027.85 Q 430.74 1025.44 430.31 1023.46 Q 430.25 1023.27 430.12 1023.27 Q 430 1023.27 429.87 1023.46 Q 428.76 1025.48 427.64 1027.96 Q 426.53 1030.44 425.5 1033.13 Q 425.44 1033.29 425.49 1033.38 Q 425.53 1033.47 425.69 1033.47 Z M 441.94 1047.02 Q 440.77 1047.02 439.82 1046.79 Q 438.88 1046.56 438.29 1046.34 Q 437.85 1046.15 437.77 1045.8 Q 437.7 1045.44 437.88 1044.97 Q 438.13 1044.32 438.55 1044.03 Q 438.97 1043.73 439.46 1043.92 Q 439.93 1044.08 440.63 1044.39 Q 441.32 1044.7 442.32 1044.7 Q 443.68 1044.7 444.46 1044.14 Q 445.23 1043.58 445.65 1042.57 Q 446.07 1041.56 446.28 1040.23 Q 446.38 1039.67 446.35 1039.49 Q 446.32 1039.3 446.13 1039.3 Q 446.01 1039.3 445.51 1039.69 Q 445.01 1040.08 444.13 1040.45 Q 443.25 1040.82 441.85 1040.82 Q 440.21 1040.82 439.31 1039.97 Q 438.41 1039.12 438.21 1037.49 Q 438.01 1035.86 438.38 1033.54 L 438.5 1032.76 Q 438.69 1031.55 439.22 1030.16 Q 439.74 1028.76 440.66 1027.52 Q 441.57 1026.28 442.94 1025.49 Q 444.3 1024.7 446.16 1024.7 Q 447.65 1024.7 448.69 1024.92 Q 449.73 1025.13 450.56 1025.48 Q 451.15 1025.69 451.54 1026.13 Q 451.93 1026.56 451.77 1027.21 Q 451.4 1028.89 451.07 1030.54 Q 450.75 1032.2 450.45 1033.86 Q 450.16 1035.52 449.9 1037.18 Q 449.63 1038.84 449.35 1040.51 Q 449.17 1041.72 448.67 1042.88 Q 448.18 1044.04 447.31 1044.97 Q 446.44 1045.9 445.12 1046.46 Q 443.8 1047.02 441.94 1047.02 Z M 443.06 1038.19 Q 443.96 1038.19 444.86 1037.66 Q 445.76 1037.13 446.42 1036.25 Q 447.09 1035.36 447.25 1034.31 Q 447.52 1032.64 447.88 1030.96 Q 448.24 1029.29 448.58 1027.65 Q 448.64 1027.49 448.59 1027.41 Q 448.55 1027.34 448.39 1027.3 Q 448.02 1027.24 447.35 1027.13 Q 446.69 1027.03 445.79 1027.03 Q 444.73 1027.03 443.99 1027.58 Q 443.25 1028.14 442.77 1029.04 Q 442.29 1029.94 442.02 1030.93 Q 441.76 1031.92 441.6 1032.76 L 441.48 1033.54 Q 441.08 1035.89 441.42 1037.04 Q 441.76 1038.19 443.06 1038.19 Z M 455.7 1040.82 Q 454.93 1040.82 454.42 1040.42 Q 453.9 1040.01 454.09 1039.3 Q 454.59 1037.22 454.97 1034.99 Q 455.36 1032.76 455.67 1030.53 Q 455.98 1028.3 456.17 1026.22 Q 456.23 1025.72 456.54 1025.4 Q 456.85 1025.07 457.33 1024.89 Q 457.81 1024.7 458.31 1024.7 Q 459.02 1024.7 459.36 1025.1 Q 459.7 1025.51 459.58 1026.22 Q 459.24 1028.3 458.9 1030.53 Q 458.55 1032.76 458.28 1034.99 Q 458 1037.22 457.81 1039.3 Q 457.75 1039.77 457.42 1040.11 Q 457.1 1040.45 456.65 1040.63 Q 456.2 1040.82 455.7 1040.82 Z M 458.62 1022.53 Q 458.03 1022.53 457.59 1022.24 Q 457.16 1021.94 456.94 1021.45 Q 456.73 1020.95 456.82 1020.36 Q 456.91 1019.74 457.28 1019.26 Q 457.66 1018.78 458.2 1018.48 Q 458.74 1018.19 459.33 1018.19 Q 460.23 1018.19 460.76 1018.83 Q 461.28 1019.46 461.16 1020.36 Q 461.03 1021.23 460.27 1021.88 Q 459.52 1022.53 458.62 1022.53 Z M 463.36 1025.97 Q 463.36 1025.44 463.87 1025.18 Q 464.38 1024.92 464.88 1024.92 Q 465.44 1024.92 465.65 1025.17 Q 465.87 1025.41 465.9 1025.91 Q 465.93 1026.22 466.01 1026.47 Q 466.09 1026.72 466.31 1026.72 Q 466.49 1026.72 466.89 1026.41 Q 467.3 1026.1 467.93 1025.71 Q 468.57 1025.32 469.41 1025.01 Q 470.24 1024.7 471.27 1024.7 Q 473.75 1024.7 474.61 1026.2 Q 475.48 1027.71 474.89 1031.21 Q 474.71 1032.51 474.49 1033.89 Q 474.27 1035.27 474.12 1036.65 Q 473.96 1038.03 473.9 1039.33 Q 473.9 1039.8 473.59 1040.14 Q 473.28 1040.48 472.83 1040.65 Q 472.38 1040.82 471.89 1040.82 Q 471.08 1040.82 470.52 1040.43 Q 469.96 1040.05 470.18 1039.33 Q 470.46 1038.34 470.69 1037.32 Q 470.92 1036.29 471.11 1035.27 Q 471.3 1034.25 471.47 1033.21 Q 471.64 1032.17 471.79 1031.21 Q 472.16 1028.85 471.79 1027.94 Q 471.42 1027.03 470.12 1027.03 Q 469.25 1027.03 468.34 1027.63 Q 467.42 1028.23 466.75 1029.2 Q 466.09 1030.16 465.9 1031.21 Q 465.72 1032.51 465.5 1033.89 Q 465.28 1035.27 465.13 1036.65 Q 464.97 1038.03 464.91 1039.33 Q 464.91 1039.8 464.6 1040.14 Q 464.29 1040.48 463.84 1040.65 Q 463.39 1040.82 462.9 1040.82 Q 462.09 1040.82 461.56 1040.43 Q 461.04 1040.05 461.19 1039.33 Q 461.69 1037.16 462.1 1034.91 Q 462.52 1032.67 462.85 1030.39 Q 463.17 1028.11 463.36 1025.97 Z M 481.96 1047.02 Q 480.78 1047.02 479.83 1046.79 Q 478.89 1046.56 478.3 1046.34 Q 477.86 1046.15 477.79 1045.8 Q 477.71 1045.44 477.89 1044.97 Q 478.14 1044.32 478.56 1044.03 Q 478.98 1043.73 479.48 1043.92 Q 479.94 1044.08 480.64 1044.39 Q 481.34 1044.7 482.33 1044.7 Q 483.69 1044.7 484.47 1044.14 Q 485.24 1043.58 485.66 1042.57 Q 486.08 1041.56 486.3 1040.23 Q 486.39 1039.67 486.36 1039.49 Q 486.33 1039.3 486.14 1039.3 Q 486.02 1039.3 485.52 1039.69 Q 485.02 1040.08 484.14 1040.45 Q 483.26 1040.82 481.86 1040.82 Q 480.22 1040.82 479.32 1039.97 Q 478.42 1039.12 478.22 1037.49 Q 478.02 1035.86 478.39 1033.54 L 478.51 1032.76 Q 478.7 1031.55 479.23 1030.16 Q 479.75 1028.76 480.67 1027.52 Q 481.58 1026.28 482.95 1025.49 Q 484.31 1024.7 486.17 1024.7 Q 487.66 1024.7 488.7 1024.92 Q 489.74 1025.13 490.57 1025.48 Q 491.16 1025.69 491.55 1026.13 Q 491.94 1026.56 491.78 1027.21 Q 491.41 1028.89 491.08 1030.54 Q 490.76 1032.2 490.46 1033.86 Q 490.17 1035.52 489.91 1037.18 Q 489.64 1038.84 489.36 1040.51 Q 489.18 1041.72 488.68 1042.88 Q 488.19 1044.04 487.32 1044.97 Q 486.45 1045.9 485.13 1046.46 Q 483.82 1047.02 481.96 1047.02 Z M 483.07 1038.19 Q 483.97 1038.19 484.87 1037.66 Q 485.77 1037.13 486.43 1036.25 Q 487.1 1035.36 487.26 1034.31 Q 487.54 1032.64 487.89 1030.96 Q 488.25 1029.29 488.59 1027.65 Q 488.65 1027.49 488.6 1027.41 Q 488.56 1027.34 488.4 1027.3 Q 488.03 1027.24 487.36 1027.13 Q 486.7 1027.03 485.8 1027.03 Q 484.75 1027.03 484 1027.58 Q 483.26 1028.14 482.78 1029.04 Q 482.3 1029.94 482.03 1030.93 Q 481.77 1031.92 481.61 1032.76 L 481.49 1033.54 Q 481.09 1035.89 481.43 1037.04 Q 481.77 1038.19 483.07 1038.19 Z M 506.11 1040.51 Q 505.42 1040.51 504.8 1040.14 Q 504.18 1039.77 504.12 1039.12 Q 503.91 1036.17 503.66 1033.07 Q 503.41 1029.97 503.24 1026.99 Q 503.07 1024.02 503.01 1021.45 Q 502.98 1020.67 503.41 1020.25 Q 503.84 1019.83 504.68 1019.83 Q 505.39 1019.83 505.87 1020.17 Q 506.35 1020.52 506.29 1021.23 Q 506.23 1023.58 506.18 1026.19 Q 506.14 1028.79 506.25 1031.49 Q 506.35 1034.19 506.63 1036.88 Q 506.63 1036.95 506.68 1036.95 Q 506.73 1036.95 506.76 1036.88 Q 507.9 1034.19 508.93 1031.5 Q 509.95 1028.82 510.83 1026.22 Q 511.72 1023.62 512.37 1021.26 Q 512.59 1020.55 513.05 1020.19 Q 513.52 1019.83 514.2 1019.83 Q 515.1 1019.83 515.45 1020.19 Q 515.81 1020.55 515.78 1021.26 Q 515.72 1023.62 515.76 1026.22 Q 515.81 1028.82 515.98 1031.5 Q 516.15 1034.19 516.43 1036.88 Q 516.43 1036.95 516.48 1036.95 Q 516.52 1036.95 516.55 1036.88 Q 517.7 1034.19 518.66 1031.41 Q 519.62 1028.64 520.44 1025.96 Q 521.27 1023.27 521.92 1020.92 Q 522.13 1020.21 522.72 1019.86 Q 523.31 1019.52 524.06 1019.52 Q 524.58 1019.52 524.97 1019.71 Q 525.36 1019.9 525.53 1020.25 Q 525.7 1020.61 525.48 1021.14 Q 524.71 1023.09 523.81 1025.3 Q 522.91 1027.52 521.98 1029.86 Q 521.05 1032.2 520.12 1034.56 Q 519.19 1036.91 518.32 1039.12 Q 518.07 1039.77 517.33 1040.14 Q 516.58 1040.51 515.9 1040.51 Q 515.22 1040.51 514.59 1040.14 Q 513.95 1039.77 513.92 1039.08 Q 513.86 1037.29 513.73 1035.22 Q 513.61 1033.16 513.5 1030.9 Q 513.39 1028.64 513.33 1026.31 Q 513.33 1026.25 513.3 1026.25 Q 513.27 1026.25 513.21 1026.31 Q 512.43 1028.64 511.58 1030.9 Q 510.73 1033.16 509.94 1035.22 Q 509.14 1037.29 508.52 1039.08 Q 508.31 1039.77 507.55 1040.14 Q 506.79 1040.51 506.11 1040.51 Z M 538.53 1033.54 Q 538.34 1034.74 537.83 1036.03 Q 537.32 1037.32 536.44 1038.4 Q 535.55 1039.49 534.22 1040.15 Q 532.89 1040.82 531.03 1040.82 Q 529.54 1040.82 528.53 1040.39 Q 527.52 1039.95 526.9 1039.19 Q 526.28 1038.43 526.01 1037.5 Q 525.73 1036.57 525.7 1035.53 Q 525.66 1034.5 525.82 1033.54 L 525.94 1032.76 Q 526.13 1031.55 526.66 1030.16 Q 527.18 1028.76 528.08 1027.52 Q 528.98 1026.28 530.35 1025.49 Q 531.71 1024.7 533.57 1024.7 Q 535.43 1024.7 536.53 1025.49 Q 537.63 1026.28 538.16 1027.52 Q 538.68 1028.76 538.76 1030.16 Q 538.84 1031.55 538.65 1032.76 Z M 535.55 1032.76 Q 535.68 1031.95 535.71 1030.98 Q 535.74 1030 535.54 1029.1 Q 535.34 1028.2 534.79 1027.61 Q 534.25 1027.03 533.2 1027.03 Q 532.14 1027.03 531.42 1027.61 Q 530.69 1028.2 530.19 1029.1 Q 529.69 1030 529.43 1030.98 Q 529.17 1031.95 529.04 1032.76 L 528.92 1033.54 Q 528.8 1034.22 528.8 1035.01 Q 528.8 1035.8 529.01 1036.53 Q 529.23 1037.26 529.8 1037.72 Q 530.38 1038.19 531.43 1038.19 Q 532.48 1038.19 533.2 1037.72 Q 533.91 1037.26 534.36 1036.53 Q 534.81 1035.8 535.06 1035.01 Q 535.31 1034.22 535.43 1033.54 Z M 542.84 1040.82 Q 542.07 1040.82 541.56 1040.42 Q 541.05 1040.01 541.17 1039.3 Q 541.7 1037.13 542.1 1034.88 Q 542.5 1032.64 542.83 1030.37 Q 543.15 1028.11 543.34 1025.97 Q 543.34 1025.44 543.85 1025.18 Q 544.36 1024.92 544.95 1024.92 Q 545.45 1024.92 545.65 1025.17 Q 545.85 1025.41 545.88 1025.91 Q 545.91 1026.22 545.99 1026.47 Q 546.07 1026.72 546.28 1026.72 Q 546.47 1026.72 546.87 1026.41 Q 547.28 1026.1 547.91 1025.71 Q 548.55 1025.32 549.38 1025.01 Q 550.22 1024.7 551.24 1024.7 Q 552.45 1024.7 553.27 1025.04 Q 554.1 1025.38 554.53 1026.13 Q 554.69 1026.37 554.82 1026.54 Q 554.96 1026.72 555.12 1026.72 Q 555.37 1026.72 555.8 1026.41 Q 556.24 1026.1 556.87 1025.71 Q 557.51 1025.32 558.36 1025.01 Q 559.21 1024.7 560.23 1024.7 Q 562.71 1024.7 563.58 1026.2 Q 564.45 1027.71 563.86 1031.21 Q 563.68 1032.51 563.46 1033.89 Q 563.24 1035.27 563.09 1036.64 Q 562.93 1038 562.87 1039.3 Q 562.87 1039.77 562.56 1040.11 Q 562.25 1040.45 561.78 1040.63 Q 561.32 1040.82 560.82 1040.82 Q 560.33 1040.82 559.89 1040.63 Q 559.46 1040.45 559.24 1040.11 Q 559.03 1039.77 559.15 1039.3 Q 559.43 1038.31 559.66 1037.3 Q 559.89 1036.29 560.08 1035.26 Q 560.27 1034.22 560.44 1033.19 Q 560.61 1032.17 560.76 1031.21 Q 561.13 1028.85 560.76 1027.94 Q 560.39 1027.03 559.09 1027.03 Q 558.22 1027.03 557.3 1027.63 Q 556.39 1028.23 555.72 1029.2 Q 555.06 1030.16 554.87 1031.21 Q 554.69 1032.51 554.47 1033.89 Q 554.25 1035.27 554.1 1036.64 Q 553.94 1038 553.88 1039.3 Q 553.88 1039.77 553.57 1040.11 Q 553.26 1040.45 552.79 1040.63 Q 552.33 1040.82 551.83 1040.82 Q 551.34 1040.82 550.9 1040.63 Q 550.47 1040.45 550.25 1040.11 Q 550.04 1039.77 550.16 1039.3 Q 550.44 1038.31 550.67 1037.3 Q 550.9 1036.29 551.09 1035.26 Q 551.28 1034.22 551.45 1033.19 Q 551.62 1032.17 551.77 1031.21 Q 552.14 1028.85 551.77 1027.94 Q 551.4 1027.03 550.1 1027.03 Q 549.23 1027.03 548.31 1027.63 Q 547.4 1028.23 546.73 1029.2 Q 546.07 1030.16 545.88 1031.21 Q 545.7 1032.51 545.48 1033.89 Q 545.26 1035.27 545.11 1036.64 Q 544.95 1038 544.89 1039.3 Q 544.89 1039.77 544.58 1040.11 Q 544.27 1040.45 543.8 1040.63 Q 543.34 1040.82 542.84 1040.82 Z M 572.57 1040.82 Q 571.08 1040.82 570.07 1040.39 Q 569.06 1039.95 568.44 1039.19 Q 567.82 1038.43 567.55 1037.5 Q 567.27 1036.57 567.24 1035.53 Q 567.2 1034.5 567.36 1033.54 L 567.48 1032.76 Q 567.67 1031.55 568.2 1030.16 Q 568.72 1028.76 569.62 1027.52 Q 570.52 1026.28 571.89 1025.49 Q 573.25 1024.7 575.11 1024.7 Q 576.81 1024.7 577.81 1025.23 Q 578.8 1025.75 579.28 1026.54 Q 579.76 1027.34 579.87 1028.16 Q 579.98 1028.98 579.88 1029.6 Q 579.67 1030.81 578.94 1031.58 Q 578.21 1032.36 577.14 1032.79 Q 576.07 1033.23 574.86 1033.44 Q 573.65 1033.66 572.49 1033.71 Q 571.33 1033.75 570.43 1033.75 Q 570.27 1033.75 570.18 1033.83 Q 570.09 1033.91 570.06 1034.06 Q 569.9 1035.4 570.07 1036.39 Q 570.24 1037.38 570.92 1037.94 Q 571.61 1038.5 572.94 1038.5 Q 573.93 1038.5 574.77 1038.03 Q 575.61 1037.57 576.1 1037.41 Q 576.47 1037.29 576.8 1037.46 Q 577.12 1037.63 577.36 1037.95 Q 577.59 1038.28 577.59 1038.62 Q 577.65 1039.33 577.4 1039.6 Q 577.16 1039.86 577 1039.92 Q 576.44 1040.14 575.23 1040.48 Q 574.02 1040.82 572.57 1040.82 Z M 570.8 1031.58 Q 574.02 1031.55 575.33 1031.1 Q 576.63 1030.65 576.75 1029.66 Q 576.85 1028.92 576.69 1028.28 Q 576.54 1027.65 576.07 1027.26 Q 575.61 1026.87 574.77 1026.87 Q 573.44 1026.87 572.57 1027.46 Q 571.7 1028.05 571.22 1029.04 Q 570.74 1030.03 570.49 1031.27 Q 570.49 1031.4 570.57 1031.49 Q 570.65 1031.58 570.8 1031.58 Z M 584.06 1025.97 Q 584.06 1025.44 584.57 1025.18 Q 585.08 1024.92 585.58 1024.92 Q 586.13 1024.92 586.35 1025.17 Q 586.57 1025.41 586.6 1025.91 Q 586.63 1026.22 586.71 1026.47 Q 586.79 1026.72 587 1026.72 Q 587.19 1026.72 587.59 1026.41 Q 587.99 1026.1 588.63 1025.71 Q 589.27 1025.32 590.1 1025.01 Q 590.94 1024.7 591.96 1024.7 Q 594.44 1024.7 595.31 1026.2 Q 596.18 1027.71 595.59 1031.21 Q 595.4 1032.51 595.19 1033.89 Q 594.97 1035.27 594.81 1036.65 Q 594.66 1038.03 594.6 1039.33 Q 594.6 1039.8 594.29 1040.14 Q 593.98 1040.48 593.53 1040.65 Q 593.08 1040.82 592.58 1040.82 Q 591.78 1040.82 591.22 1040.43 Q 590.66 1040.05 590.88 1039.33 Q 591.16 1038.34 591.39 1037.32 Q 591.62 1036.29 591.81 1035.27 Q 591.99 1034.25 592.16 1033.21 Q 592.33 1032.17 592.49 1031.21 Q 592.86 1028.85 592.49 1027.94 Q 592.12 1027.03 590.82 1027.03 Q 589.95 1027.03 589.03 1027.63 Q 588.12 1028.23 587.45 1029.2 Q 586.79 1030.16 586.6 1031.21 Q 586.41 1032.51 586.2 1033.89 Q 585.98 1035.27 585.82 1036.65 Q 585.67 1038.03 585.61 1039.33 Q 585.61 1039.8 585.3 1040.14 Q 584.99 1040.48 584.54 1040.65 Q 584.09 1040.82 583.59 1040.82 Q 582.79 1040.82 582.26 1040.43 Q 581.73 1040.05 581.89 1039.33 Q 582.38 1037.16 582.8 1034.91 Q 583.22 1032.67 583.55 1030.39 Q 583.87 1028.11 584.06 1025.97 Z" transform="matrix(0.631177, 0, 0, 0.74374, 568.05494, 117.13286)" style="fill: rgb(149, 110, 165); text-transform: capitalize; text-wrap-mode: nowrap;"/><path style="fill: rgb(51, 51, 51); text-wrap-mode: nowrap;"/><path d="M 236.05 878.9 Q 236.05 879.21 235.89 879.46 Q 235.73 879.72 235.43 879.69 Q 234.8 879.61 234.14 879.57 Q 233.47 879.54 232.8 879.53 Q 232.13 879.53 231.49 879.53 Q 231.33 879.53 231.27 879.61 Q 231.2 879.69 231.22 879.85 Q 231.3 880.53 231.31 881.26 Q 231.33 881.99 231.33 882.68 Q 231.33 882.84 231.41 882.9 Q 231.49 882.97 231.65 882.95 Q 232.42 882.87 233.19 882.83 Q 233.95 882.79 234.71 882.68 Q 234.91 882.65 235.05 882.77 Q 235.19 882.89 235.26 883.08 Q 235.33 883.27 235.33 883.49 Q 235.33 883.8 235.17 883.96 Q 235.01 884.12 234.71 884.12 Q 233.94 884.12 233.16 884.13 Q 232.39 884.15 231.62 884.25 Q 231.47 884.26 231.4 884.34 Q 231.33 884.42 231.33 884.57 Q 231.33 885.27 231.31 885.94 Q 231.28 886.61 231.2 887.32 Q 231.19 887.48 231.26 887.56 Q 231.33 887.64 231.49 887.64 Q 232.16 887.64 232.83 887.63 Q 233.51 887.62 234.18 887.58 Q 234.85 887.54 235.51 887.48 Q 235.81 887.45 235.97 887.71 Q 236.13 887.97 236.13 888.29 Q 236.13 888.6 235.97 888.76 Q 235.81 888.92 235.51 888.92 L 230.35 888.92 Q 230.05 888.92 229.79 888.76 Q 229.54 888.6 229.57 888.29 Q 229.73 886.73 229.79 885.16 Q 229.84 883.59 229.79 882.01 Q 229.73 880.44 229.57 878.87 Q 229.54 878.57 229.79 878.41 Q 230.05 878.25 230.35 878.25 L 235.43 878.25 Q 235.73 878.25 235.89 878.41 Q 236.05 878.58 236.05 878.9 Z M 238.71 889.08 Q 238.45 889.08 238.22 888.98 Q 237.99 888.89 237.85 888.71 Q 237.71 888.53 237.73 888.29 Q 237.81 887.22 237.83 886.07 Q 237.86 884.92 237.83 883.77 Q 237.81 882.61 237.73 881.54 Q 237.71 881.29 237.85 881.12 Q 237.99 880.95 238.22 880.85 Q 238.45 880.76 238.71 880.76 Q 239.07 880.76 239.28 880.97 Q 239.49 881.17 239.49 881.54 Q 239.49 882.61 239.5 883.77 Q 239.51 884.92 239.54 886.07 Q 239.57 887.22 239.65 888.29 Q 239.67 888.53 239.53 888.71 Q 239.39 888.89 239.18 888.98 Q 238.96 889.08 238.71 889.08 Z M 238.69 879.64 Q 238.39 879.64 238.13 879.49 Q 237.87 879.33 237.72 879.08 Q 237.57 878.82 237.57 878.52 Q 237.57 878.2 237.72 877.95 Q 237.87 877.7 238.13 877.55 Q 238.39 877.4 238.69 877.4 Q 239.01 877.4 239.26 877.55 Q 239.51 877.7 239.66 877.95 Q 239.81 878.2 239.81 878.52 Q 239.81 878.97 239.48 879.3 Q 239.15 879.64 238.69 879.64 Z M 242.83 889.08 Q 242.59 889.08 242.37 888.98 Q 242.15 888.89 242.01 888.71 Q 241.87 888.53 241.89 888.29 Q 241.97 887.17 241.99 886.01 Q 242.02 884.85 241.99 883.69 Q 241.97 882.52 241.89 881.41 Q 241.87 881.14 242.11 881.01 Q 242.34 880.87 242.59 880.87 Q 242.88 880.87 243.02 881 Q 243.15 881.13 243.22 881.38 Q 243.25 881.54 243.31 881.67 Q 243.38 881.8 243.49 881.8 Q 243.59 881.8 243.77 881.64 Q 243.95 881.48 244.25 881.28 Q 244.55 881.08 244.95 880.92 Q 245.36 880.76 245.89 880.76 Q 246.02 880.76 246.15 880.77 Q 246.27 880.77 246.39 880.79 Q 246.66 880.82 246.82 881.05 Q 246.98 881.27 246.83 881.69 Q 246.79 881.85 246.63 882 Q 246.48 882.15 246.31 882.21 Q 246.15 882.28 246 882.18 Q 245.89 882.1 245.75 882.03 Q 245.62 881.96 245.49 881.96 Q 245.04 881.96 244.62 882.27 Q 244.19 882.58 243.92 883.08 Q 243.65 883.57 243.65 884.12 Q 243.65 884.79 243.66 885.5 Q 243.67 886.21 243.7 886.92 Q 243.73 887.62 243.81 888.29 Q 243.84 888.53 243.71 888.71 Q 243.57 888.89 243.34 888.98 Q 243.11 889.08 242.83 889.08 Z M 250.66 889 Q 250.31 889 250.06 888.84 Q 249.81 888.68 249.65 888.28 Q 249.22 887.16 248.85 886.04 Q 248.48 884.92 248.17 883.81 Q 247.86 882.69 247.55 881.61 Q 247.49 881.35 247.59 881.16 Q 247.68 880.97 247.9 880.86 Q 248.11 880.76 248.35 880.76 Q 248.77 880.76 248.99 880.93 Q 249.2 881.11 249.27 881.48 Q 249.43 882.37 249.61 883.33 Q 249.79 884.28 250.06 885.22 Q 250.32 886.17 250.72 887.08 Q 250.77 887.17 250.83 887.17 Q 250.9 887.17 250.95 887.08 Q 251.35 886.17 251.61 885.22 Q 251.87 884.28 252.07 883.33 Q 252.26 882.37 252.4 881.48 Q 252.47 881.11 252.67 880.93 Q 252.88 880.76 253.23 880.76 L 253.25 880.76 Q 253.52 880.76 253.75 880.86 Q 253.97 880.97 254.08 881.15 Q 254.19 881.33 254.11 881.61 Q 253.83 882.69 253.51 883.81 Q 253.19 884.92 252.83 886.04 Q 252.47 887.16 252.02 888.28 Q 251.86 888.68 251.57 888.84 Q 251.28 889 250.66 889 Z M 257.79 889.08 Q 256.51 889.08 255.95 888.09 Q 255.39 887.11 255.39 885.32 L 255.39 884.92 Q 255.39 884.29 255.55 883.57 Q 255.7 882.85 256.07 882.21 Q 256.45 881.57 257.08 881.17 Q 257.71 880.76 258.67 880.76 Q 259.44 880.76 260 880.87 Q 260.56 880.98 261.03 881.16 Q 261.35 881.27 261.59 881.49 Q 261.83 881.72 261.79 882.05 Q 261.73 882.84 261.71 883.72 Q 261.68 884.6 261.68 885.46 Q 261.68 886.33 261.71 887.08 Q 261.73 887.83 261.79 888.37 Q 261.83 888.63 261.59 888.77 Q 261.36 888.92 261.09 888.92 Q 260.8 888.92 260.67 888.79 Q 260.53 888.66 260.47 888.41 Q 260.43 888.23 260.37 888.13 Q 260.31 888.04 260.19 888.04 Q 260.1 888.04 259.91 888.2 Q 259.73 888.36 259.43 888.56 Q 259.14 888.76 258.73 888.92 Q 258.32 889.08 257.79 889.08 Z M 258.19 887.72 Q 258.66 887.72 259.07 887.45 Q 259.49 887.17 259.76 886.72 Q 260.03 886.26 260.03 885.72 Q 260.03 885.14 260.06 884.57 Q 260.08 883.99 260.11 883.41 Q 260.15 882.84 260.18 882.26 Q 260.21 882.12 260.05 882.09 Q 259.86 882.05 259.48 882.01 Q 259.11 881.96 258.67 881.96 Q 258.13 881.96 257.79 882.25 Q 257.46 882.53 257.28 883 Q 257.11 883.46 257.05 883.97 Q 256.99 884.49 256.99 884.92 L 256.99 885.32 Q 256.99 886.53 257.26 887.13 Q 257.52 887.72 258.19 887.72 Z M 263.87 881.41 Q 263.86 881.14 264.09 881.01 Q 264.32 880.87 264.58 880.87 Q 264.87 880.87 265 881 Q 265.14 881.13 265.2 881.38 Q 265.23 881.54 265.3 881.67 Q 265.36 881.8 265.47 881.8 Q 265.57 881.8 265.75 881.64 Q 265.94 881.48 266.23 881.28 Q 266.53 881.08 266.94 880.92 Q 267.35 880.76 267.87 880.76 Q 269.15 880.76 269.71 881.53 Q 270.27 882.31 270.27 884.12 Q 270.27 884.79 270.28 885.5 Q 270.29 886.21 270.32 886.93 Q 270.35 887.64 270.43 888.31 Q 270.48 888.68 270.18 888.88 Q 269.87 889.08 269.51 889.08 Q 269.09 889.08 268.78 888.88 Q 268.47 888.68 268.51 888.31 Q 268.59 887.64 268.63 886.93 Q 268.66 886.21 268.67 885.5 Q 268.67 884.79 268.67 884.12 Q 268.67 882.9 268.41 882.43 Q 268.15 881.96 267.47 881.96 Q 267.03 881.96 266.6 882.27 Q 266.18 882.58 265.91 883.08 Q 265.63 883.57 265.63 884.12 Q 265.63 884.79 265.64 885.5 Q 265.65 886.21 265.68 886.93 Q 265.71 887.64 265.79 888.31 Q 265.84 888.68 265.54 888.88 Q 265.23 889.08 264.87 889.08 Q 264.45 889.08 264.15 888.88 Q 263.86 888.68 263.87 888.31 Q 263.95 887.19 263.98 886.03 Q 264 884.87 263.98 883.69 Q 263.95 882.52 263.87 881.41 Z M 274.67 889.08 Q 273.39 889.08 272.83 888.09 Q 272.27 887.11 272.27 885.32 L 272.27 884.92 Q 272.27 884.29 272.43 883.57 Q 272.58 882.85 272.95 882.21 Q 273.33 881.57 273.96 881.17 Q 274.59 880.76 275.55 880.76 Q 276.32 880.76 276.88 880.87 Q 277.44 880.98 277.91 881.16 Q 278.23 881.27 278.47 881.49 Q 278.71 881.72 278.67 882.05 Q 278.61 882.84 278.59 883.72 Q 278.56 884.6 278.56 885.46 Q 278.56 886.33 278.59 887.08 Q 278.61 887.83 278.67 888.37 Q 278.71 888.63 278.47 888.77 Q 278.24 888.92 277.97 888.92 Q 277.68 888.92 277.55 888.79 Q 277.41 888.66 277.35 888.41 Q 277.31 888.23 277.25 888.13 Q 277.19 888.04 277.07 888.04 Q 276.98 888.04 276.79 888.2 Q 276.61 888.36 276.31 888.56 Q 276.02 888.76 275.61 888.92 Q 275.2 889.08 274.67 889.08 Z M 275.07 887.72 Q 275.54 887.72 275.95 887.45 Q 276.37 887.17 276.64 886.72 Q 276.91 886.26 276.91 885.72 Q 276.91 885.14 276.94 884.57 Q 276.96 883.99 276.99 883.41 Q 277.03 882.84 277.06 882.26 Q 277.09 882.12 276.93 882.09 Q 276.74 882.05 276.36 882.01 Q 275.99 881.96 275.55 881.96 Q 275.01 881.96 274.67 882.25 Q 274.34 882.53 274.16 883 Q 273.99 883.46 273.93 883.97 Q 273.87 884.49 273.87 884.92 L 273.87 885.32 Q 273.87 886.53 274.14 887.13 Q 274.4 887.72 275.07 887.72 Z" transform="matrix(15.453233, 0, 0, 10.825763, -3348.520069, -8773.672006)" style="fill: rgb(149, 110, 165); fill-rule: evenodd; text-wrap-mode: nowrap;"/><defs><bx:export><bx:file format="svg" normalization="{&quot;convertTextsToPaths&quot;:true}" width="1230" height="1206" path="Eirvana.svg"/><bx:file format="png"/><bx:file format="jpeg"/></bx:export></defs><path style="fill: rgb(149, 110, 165); fill-rule: evenodd; text-wrap-mode: nowrap;"/></svg>