<?xml version="1.0" encoding="utf-8"?>
<svg xmlns="http://www.w3.org/2000/svg" width="1230px" height="1206px" viewBox="0 0 1230 1206" version="1.1">
  <path d="M 1058.47 1083.79 L 874.489 1083.79 L 874.489 788.681 C 874.489 718.307 873.091 627.744 778.617 627.744 C 682.694 627.744 668.044 704.318 668.044 783.488 L 668.044 1083.79 L 484.067 1083.79 L 484.067 476.929 L 660.797 476.929 L 660.797 559.649 L 663.178 559.649 C 687.871 511.956 747.92 461.614 837.631 461.614 C 1024.04 461.614 1058.52 587.205 1058.52 750.686 L 1058.52 1083.79 L 1058.47 1083.79 Z M 276.277 393.89 C 217.056 393.89 169.483 344.819 169.483 284.461 C 169.483 224.156 217.108 175.139 276.277 175.139 C 335.29 175.139 383.123 224.156 383.123 284.461 C 383.123 344.819 335.239 393.89 276.277 393.89 Z M 368.524 1083.79 L 184.029 1083.79 L 184.029 476.929 L 368.524 476.929 L 368.524 1083.79 Z M 1150.51 0 L 91.678 0 C 40.999 0 0 41.016 0 91.623 L 0 1180.19 C 0 1230.85 40.999 1271.81 91.678 1271.81 L 1150.35 1271.81 C 1200.98 1271.81 1242.39 1230.85 1242.39 1180.19 L 1242.39 91.623 C 1242.39 41.016 1200.98 0 1150.35 0 L 1150.51 0 Z" style="fill: rgb(13, 96, 150);"/>
</svg>